<svg width="31" height="34" viewBox="0 0 31 34" fill="none" xmlns="http://www.w3.org/2000/svg">
<path d="M19.8719 30.1078C19.8997 30.0964 19.9274 30.0852 19.955 30.074C20.2819 29.9409 20.6014 29.8213 20.9904 29.6519C20.9906 29.6518 20.9909 29.6516 20.9911 29.6515C21.0513 29.6252 21.1132 29.5976 21.1769 29.5684C21.6869 29.3307 22.3517 28.9985 23.2296 28.3126C23.5668 28.0469 23.873 27.7904 24.1479 27.551C24.6603 27.1049 25.065 26.719 25.3584 26.4463C25.442 26.3679 25.5229 26.2818 25.7026 26.0457C25.8197 25.8905 25.9743 25.6774 26.1805 25.3582C26.29 25.1883 26.4137 24.988 26.5504 24.7485C26.7351 24.425 26.9423 24.0145 27.1356 23.5506C27.4176 22.8784 27.6639 22.0926 27.8234 21.3285C27.9898 20.5453 28.0661 19.7881 28.0948 19.2128C28.1053 19.0105 28.1118 18.8098 28.1143 18.6092L29.1152 19.6101C28.4318 19.6022 27.7518 19.5876 27.0276 19.5719C26.1548 19.5531 25.2178 19.5328 24.1337 19.5212C23.3019 19.5123 22.4937 19.4362 21.6724 19.3511C21.5679 19.3403 21.463 19.3293 21.3579 19.3183C20.6332 19.2424 19.8923 19.1647 19.0911 19.1202C17.6631 19.0409 16.5235 19.0737 15.2618 19.1099C14.7683 19.1241 14.256 19.1389 13.7005 19.1477C12.8219 19.1615 11.5589 19.1587 10.2907 19.1548C10.1826 19.1545 10.0745 19.1542 9.96658 19.1539C9.96603 19.1539 9.96548 19.1539 9.96494 19.1539C8.80405 19.1502 7.66467 19.1466 6.82875 19.1546C5.50043 19.1674 5.00065 19.1976 4.58382 19.2229C4.42713 19.2324 4.28207 19.2413 4.10914 19.2482C3.48631 19.273 2.5461 19.2684 1.59304 19.2638C1.5894 19.2638 1.58577 19.2638 1.58213 19.2638C1.42396 19.263 1.2963 19.1783 1.29705 19.0746C1.29781 18.9709 1.42668 18.8874 1.58486 18.8882C2.08969 18.8907 2.5823 18.893 3.02337 18.8913C3.04624 18.8022 3.16501 18.7348 3.30736 18.7355C3.66373 18.7372 4.75522 18.6701 6.46346 18.5604C6.34645 18.5442 6.24844 18.5284 6.16256 18.5134C6.06175 18.4957 5.98452 18.4806 5.91812 18.4676C5.77972 18.4405 5.68763 18.4227 5.52419 18.4095C5.1456 18.3946 4.5506 18.3915 3.92445 18.3885C3.76634 18.3877 3.63866 18.3032 3.63937 18.1995C3.64013 18.0959 3.76905 18.0124 3.92718 18.0131C3.93027 18.0131 3.93336 18.0131 3.93645 18.0131C4.55661 18.0161 5.17072 18.0192 5.5662 18.0351C5.66681 18.0391 5.75348 18.0439 5.81855 18.0483C5.87057 18.0518 5.9355 18.0565 5.97159 18.0626C5.97639 18.0634 5.98551 18.065 5.99642 18.0675C5.9966 18.0676 5.99678 18.0676 5.99696 18.0677C6.00305 18.0691 6.03417 18.0761 6.06735 18.0913C6.07405 18.0944 6.08862 18.1013 6.10554 18.1124C6.10991 18.1132 6.11426 18.1141 6.11864 18.1149C6.17949 18.1268 6.24157 18.1389 6.30878 18.1506C6.57118 18.1965 6.9868 18.2544 7.85232 18.3156C8.64837 18.3719 9.99411 18.3972 11.6733 18.3976C11.5598 18.3899 11.4461 18.3824 11.3325 18.3751C11.0466 18.357 10.7594 18.3404 10.4721 18.3246C10.362 18.3186 10.2534 18.3126 10.1428 18.3068C9.96471 18.2974 9.7861 18.2882 9.60756 18.2792C9.48692 18.2731 9.36602 18.2671 9.24527 18.261C9.245 18.261 9.24473 18.261 9.24446 18.261C9.07685 18.2527 8.90883 18.2443 8.73949 18.2356C8.68022 18.2324 8.62167 18.2293 8.56353 18.2263C8.33211 18.2142 8.10477 18.2026 7.84305 18.1799C7.81122 18.1762 7.77664 18.1713 7.75084 18.1673C7.7231 18.163 7.69641 18.1587 7.67118 18.1543C7.64892 18.1504 7.62769 18.1464 7.60734 18.1428C7.60461 18.1423 7.60189 18.1418 7.59916 18.1413C7.57638 18.1372 7.55462 18.1334 7.53368 18.1298C7.5128 18.1262 7.49267 18.1227 7.47285 18.1197C7.47266 18.1197 7.47249 18.1197 7.4723 18.1197C7.45159 18.1166 7.43587 18.1143 7.41392 18.1116C7.38636 18.1083 7.36268 18.1057 7.33399 18.1032C7.30623 18.1007 7.27729 18.0985 7.24805 18.0966C7.21883 18.0947 7.18906 18.093 7.15885 18.0915C7.12861 18.09 7.09788 18.0885 7.06691 18.0873C7.03596 18.086 7.0046 18.0849 6.97307 18.0838C6.94152 18.0827 6.90962 18.0816 6.87758 18.0805C6.80381 18.078 6.73308 18.0572 6.68116 18.0219C6.62926 17.9866 6.60035 17.9399 6.60069 17.8915C6.60104 17.8432 6.63066 17.7967 6.68307 17.7619C6.73551 17.7271 6.80651 17.7069 6.88031 17.7051C6.90041 17.7047 6.9206 17.7041 6.94087 17.7037C6.95291 17.7034 6.96506 17.7032 6.97716 17.7029C7.00969 17.7022 7.04257 17.7014 7.07564 17.7009C7.10869 17.7004 7.14205 17.7 7.17576 17.6998C7.20958 17.6996 7.24385 17.6995 7.27861 17.6998C7.31329 17.7001 7.34873 17.7007 7.38473 17.7018C7.41986 17.7029 7.45993 17.7047 7.49576 17.707C7.52196 17.7085 7.55423 17.7113 7.58115 17.7137C7.60924 17.7163 7.63689 17.7192 7.66354 17.7222C7.69025 17.7251 7.71608 17.7283 7.74074 17.7313C7.74338 17.7316 7.74602 17.7319 7.74866 17.7322C7.77046 17.7349 7.79151 17.7374 7.8114 17.7397C7.83364 17.7423 7.85469 17.7445 7.87469 17.7463C7.89672 17.7484 7.9101 17.7492 7.92653 17.7502C8.14359 17.7562 8.4119 17.755 8.66774 17.7538C8.69989 17.7537 8.73187 17.7536 8.7635 17.7535C8.93154 17.7526 9.09924 17.7515 9.26683 17.7504C9.38862 17.7495 9.51057 17.7487 9.63266 17.748C9.81232 17.7469 9.99253 17.746 10.1725 17.7454C10.2844 17.745 10.3941 17.7448 10.5056 17.7447C10.7969 17.7443 11.0891 17.7448 11.3816 17.7471C11.6738 17.7493 11.9678 17.7532 12.262 17.7599C12.555 17.7665 12.8595 17.7765 13.1535 17.7916C13.3696 17.8028 13.5912 17.8225 13.7962 17.8428C13.9064 17.8538 14.0143 17.8649 14.1206 17.876C14.121 17.876 14.1213 17.8761 14.1217 17.8761C14.215 17.8859 14.3071 17.8955 14.3986 17.9047C14.5947 17.9245 14.7873 17.9421 14.9799 17.9569C15.1723 17.9717 15.3638 17.9839 15.5567 17.9932C15.7481 18.0024 15.9428 18.009 16.1356 18.0131C16.3293 18.0172 16.5195 18.0189 16.7194 18.0188C16.9822 18.0184 17.2431 18.0151 17.511 18.0111C17.777 18.007 18.0451 18.002 18.3139 17.9968C18.4079 17.995 18.502 17.9933 18.5963 17.9915C18.5966 17.9915 18.597 17.9915 18.5974 17.9915C18.7717 17.9881 18.9465 17.9847 19.1214 17.9814C19.3915 17.9764 19.6623 17.9716 19.9341 17.9677C20.2059 17.9638 20.4793 17.9608 20.7542 17.9596C21.0291 17.9586 21.3114 17.9592 21.595 17.9653C21.848 17.9706 22.103 17.9776 22.3523 17.9846C22.4181 17.9864 22.484 17.9882 22.5498 17.99C22.8622 17.9986 23.1646 18.0054 23.4637 18.0067C23.7626 18.0081 24.0612 18.0042 24.3626 17.9961C24.6631 17.988 24.9673 17.9758 25.274 17.9611C25.5821 17.9464 25.8862 17.9294 26.1964 17.9108C26.5043 17.8922 26.8136 17.8723 27.1267 17.8512C27.3007 17.8396 27.4859 17.8289 27.6608 17.8198C27.8375 17.8105 28.013 17.8024 28.1863 17.7948C28.2566 17.7918 28.3266 17.7888 28.396 17.7859C28.4974 17.7815 28.5978 17.7773 28.6967 17.7729C28.8393 17.7665 28.9789 17.7597 29.1152 17.752L30.0068 17.7894L29.9725 18.6092C29.9738 18.6338 29.975 18.6583 29.9763 18.6827C29.9849 18.8506 29.9921 19.0139 29.9995 19.172C30.007 19.3357 30.0139 19.471 30.023 19.6334C30.0338 20.0286 30.0177 20.2736 29.9965 20.5449C29.9921 20.5983 29.9875 20.6529 29.9824 20.7098C29.9515 21.035 29.9059 21.3587 29.8481 21.676C29.7896 21.9964 29.7192 22.3096 29.6354 22.6236C29.5523 22.9345 29.4561 23.2445 29.3483 23.5488C29.2538 23.8157 29.1503 24.0788 29.0378 24.3385C29.0221 24.3746 29.0063 24.4106 28.9903 24.4466C28.8593 24.741 28.7136 25.0361 28.5632 25.3132C28.4763 25.4735 28.3794 25.6411 28.286 25.7946C28.2187 25.9054 28.1506 26.0134 28.0825 26.1184C28.0547 26.1613 28.0269 26.2038 27.9991 26.2457C27.9034 26.3903 27.8083 26.5291 27.7156 26.6626C27.6229 26.796 27.5324 26.9244 27.4439 27.0501C27.3553 27.1759 27.2688 27.2991 27.1825 27.4227C27.093 27.5508 27.0188 27.6573 26.9241 27.794C26.8624 27.8831 26.8011 27.9698 26.739 28.0558C26.6461 28.1844 26.5519 28.3109 26.4552 28.4371C26.3586 28.5632 26.2614 28.6865 26.162 28.8093C26.13 28.8487 26.096 28.8903 26.0636 28.9296C25.9823 29.0282 25.9007 29.1252 25.8182 29.2213C25.799 29.2437 25.7798 29.266 25.7605 29.2883C25.6586 29.4061 25.5561 29.5218 25.4528 29.6362C25.349 29.7511 25.2456 29.8633 25.1388 29.9768C24.9574 30.1699 24.7697 30.3404 24.6009 30.4842C24.4299 30.6296 24.2651 30.7595 24.1022 30.8828C24.0717 30.9059 24.0411 30.9289 24.0104 30.9517C23.8782 31.0501 23.7464 31.1447 23.6156 31.2364C23.4543 31.3494 23.2942 31.4581 23.1321 31.5651C22.9713 31.6711 22.8074 31.7761 22.6446 31.8777C22.4803 31.9802 22.3218 32.0765 22.1495 32.1783C21.979 32.2789 21.8053 32.3811 21.6121 32.489C21.4408 32.5845 21.2597 32.6808 21.073 32.7732C21.051 32.784 21.0289 32.7949 21.0068 32.8056C20.797 32.9077 20.5803 33.0045 20.362 33.0931C20.1432 33.182 19.9206 33.2637 19.6986 33.3371C19.4755 33.411 19.2512 33.4771 19.0263 33.5362C18.8019 33.5953 18.5682 33.6491 18.3482 33.693C17.9921 33.7642 17.6349 33.8214 17.2756 33.8655C16.9183 33.9094 16.5584 33.9403 16.1989 33.9582C15.8682 33.9746 15.5368 33.9801 15.2061 33.9748C15.1779 33.9743 15.1497 33.9738 15.1214 33.9731C14.7626 33.9653 14.4042 33.9447 14.0478 33.9117C13.9689 33.9043 13.8902 33.8964 13.8115 33.8879C13.5344 33.8578 13.2583 33.8202 12.9847 33.7755C12.9828 33.7751 12.981 33.7748 12.9791 33.7745C12.6269 33.7168 12.2834 33.6482 11.9391 33.568C11.8127 33.5386 11.6917 33.5089 11.569 33.4775C11.4461 33.446 11.3259 33.4139 11.205 33.3803C11.0839 33.3466 10.9638 33.312 10.8459 33.2769C10.7266 33.2415 10.6107 33.2059 10.494 33.1694C10.3869 33.1359 10.2807 33.1023 10.1651 33.0641C10.1546 33.0606 10.144 33.0571 10.1335 33.0536C10.0071 33.0116 9.86432 32.9608 9.73315 32.9095C9.60302 32.8585 9.47478 32.8064 9.34758 32.753C9.13535 32.6639 8.92614 32.5711 8.71654 32.4731C8.3812 32.3163 8.05159 32.149 7.72537 31.969C7.59801 31.8987 7.47093 31.8264 7.34494 31.7521C7.14892 31.6367 6.95473 31.5164 6.76293 31.3911C6.44735 31.185 6.13919 30.9658 5.83906 30.7324C5.54006 30.4999 5.2492 30.253 4.9711 29.9951C4.77254 29.8111 4.57858 29.6197 4.39176 29.4236C4.31706 29.3452 4.24353 29.2661 4.17126 29.1863C3.88934 28.8753 3.62306 28.554 3.36999 28.221C3.11737 27.8886 2.87916 27.5455 2.65703 27.1952C2.43405 26.8436 2.22674 26.484 2.03501 26.1168C1.84317 25.7494 1.66713 25.3747 1.50717 24.9937C1.42242 24.7918 1.34228 24.5882 1.26671 24.3831C1.25691 24.3565 1.24719 24.3299 1.23755 24.3033C1.18013 24.1857 1.12637 24.0723 1.07598 23.9624C0.707881 23.1489 0.486321 22.5341 0.278729 21.7019C0.257639 21.6224 0.23822 21.5581 0.215202 21.4796C0.210816 21.4647 0.206273 21.4488 0.201603 21.4325C0.172091 21.3298 0.139854 21.2113 0.106083 21.0443C0.0392774 20.7118 -0.0319831 20.1907 0.0153313 19.5163C0.0274098 19.3458 0.123499 19.2348 0.226085 19.2665C0.298158 19.2887 0.354755 19.374 0.378561 19.4797C0.379004 19.2817 0.384003 19.0844 0.392829 18.8881C0.396356 18.8097 0.418964 18.7359 0.455763 18.6838C0.492577 18.6316 0.540261 18.6052 0.588513 18.6097C0.636804 18.6142 0.682026 18.6491 0.715368 18.7063C0.74867 18.7636 0.76741 18.8384 0.768269 18.915C0.770428 19.1184 0.77683 19.321 0.78813 19.5235C0.799425 19.7261 0.815556 19.9276 0.836398 20.1291C0.857236 20.3306 0.882823 20.5315 0.91308 20.7324C0.94324 20.9325 0.977922 21.1323 1.01724 21.3316C1.05679 21.5321 1.10016 21.7279 1.14841 21.9258C1.17734 22.0444 1.20813 22.164 1.24001 22.281C1.25185 22.3246 1.26376 22.3671 1.27576 22.4095C1.28557 22.4442 1.29549 22.4791 1.30589 22.5149C1.41554 22.8917 1.54219 23.2673 1.68304 23.6335C1.74686 23.7995 1.81376 23.9642 1.8837 24.1275C1.96875 24.3262 2.05828 24.5227 2.15222 24.7171C2.32348 25.0714 2.50933 25.4182 2.70906 25.7566C2.90871 26.0949 3.12212 26.4246 3.34914 26.7452C3.57535 27.0647 3.81556 27.3759 4.06771 27.6755C4.26275 27.9072 4.46362 28.1305 4.67172 28.3473C4.75912 28.4276 4.84621 28.5062 4.93286 28.5828C4.98595 28.6297 5.03959 28.6759 5.09376 28.7216C5.2969 28.8927 5.50677 29.0546 5.71784 29.2082C5.49955 29.0236 5.30539 28.8524 5.12612 28.6892C4.93815 28.518 4.76656 28.3555 4.60272 28.1931C4.5598 28.1506 4.51742 28.1081 4.47546 28.0654C4.04892 27.6285 3.65554 27.1809 3.22043 26.5139C2.60756 25.5656 2.22975 24.7531 1.96444 24.0941C1.6993 23.4294 1.54925 22.9163 1.44842 22.5203C1.25346 21.7289 1.23396 21.3751 1.24505 21.0447C1.25867 20.5769 1.22113 19.7038 1.20925 19.2655C1.2025 19.1059 1.28424 18.9752 1.38783 18.9735C1.49156 18.9718 1.57796 19.0959 1.58453 19.2506C1.59642 19.7011 1.63946 20.6196 1.62771 21.1631C1.6224 21.4045 1.62882 21.683 1.81603 22.442C1.91268 22.8199 2.05657 23.311 2.3114 23.9504C2.56873 24.5899 2.93621 25.3824 3.53697 26.3117C3.94557 26.9377 4.31287 27.3584 4.72296 27.7803C4.76335 27.8216 4.80435 27.8628 4.8459 27.9041C4.84614 27.9044 4.84639 27.9047 4.84663 27.9049C5.01502 28.0725 5.19381 28.2422 5.39238 28.423C5.64586 28.6534 5.93105 28.9022 6.27363 29.1811C7.38422 30.1165 9.02981 30.9744 9.95213 31.2935C10.1861 31.3802 10.3703 31.4399 10.4826 31.4731C10.5909 31.5051 10.6962 31.5337 10.8076 31.5625C11.2363 31.666 11.7496 31.8135 12.9251 31.9973C13.1824 32.0354 13.4843 32.0756 13.8149 32.1081C14.3123 32.1092 14.7915 32.0832 15.2061 32.055C15.2093 32.0548 15.2125 32.0546 15.2156 32.0544C15.5755 32.03 15.9049 31.9716 16.2189 31.8992C16.3094 31.8783 16.4 31.8558 16.4901 31.8325C16.7073 31.7763 16.9223 31.7146 17.1305 31.6565C17.2965 31.6102 17.4686 31.5553 17.6483 31.4933C18.3039 31.2654 19.06 30.9563 20.0346 30.5634C20.0699 30.5491 20.105 30.5347 20.1399 30.5203C21.1255 30.1111 21.9316 29.6608 22.5983 29.222C22.0858 29.5484 21.6662 29.758 21.3129 29.9198C21.2462 29.9503 21.182 29.9788 21.1201 30.0058C20.7174 30.1802 20.4106 30.2937 20.0986 30.4208C20.0712 30.4319 20.0437 30.4431 20.016 30.4544C18.3708 31.0964 17.7039 31.187 16.9762 31.4004C16.7828 31.4516 16.5684 31.5092 16.3346 31.5644C15.9961 31.6444 15.6164 31.7193 15.2061 31.7633C15.0503 31.78 14.8903 31.7923 14.7268 31.7988C14.1739 31.8212 13.5497 31.8254 12.8855 31.7753C12.8853 31.7752 12.885 31.7752 12.8848 31.7751C12.755 31.7653 12.6237 31.7535 12.4913 31.7395C11.6844 31.6548 10.8354 31.482 10.0388 31.209C10.0242 31.204 10.0091 31.1988 9.99354 31.1935C9.91816 31.1677 9.83142 31.1379 9.7346 31.1033C9.06531 30.8651 7.87098 30.374 6.69268 29.3689C6.43503 29.1491 6.18332 28.9021 5.91099 28.6087C5.8281 28.5193 5.74336 28.4253 5.65616 28.3264C5.63043 28.2972 5.60443 28.2675 5.57814 28.2372C5.22092 27.8242 4.80541 27.3155 4.32063 26.6179C3.89138 26.0004 3.41354 25.2159 3.01993 24.3519C2.93139 24.1583 2.84678 23.9611 2.76701 23.7617C2.67158 23.5231 2.58311 23.2814 2.50266 23.0393C2.05818 21.6953 1.86616 20.3996 1.84888 19.1142C1.84887 19.114 1.84886 19.1137 1.84885 19.1134C1.84699 18.9612 1.93264 18.8408 2.03627 18.8445C2.13995 18.8483 2.22272 18.9706 2.22468 19.1179C2.24233 20.3679 2.42944 21.6234 2.86049 22.9254C2.93741 23.1566 3.02223 23.3885 3.11395 23.618C3.191 23.8108 3.27291 24.002 3.35878 24.19C3.7427 25.0343 4.21381 25.8074 4.63569 26.413C5.09918 27.079 5.50006 27.5708 5.84504 27.9703C5.8835 28.0147 5.92131 28.0578 5.95854 28.0999C6.0482 28.2011 6.13384 28.2954 6.2164 28.3838C6.47941 28.6652 6.70979 28.8901 6.94765 29.0926C8.05854 30.0374 9.1741 30.5013 9.82716 30.7363C9.94379 30.7784 10.0467 30.8138 10.1343 30.8439C10.1355 30.8443 10.1367 30.8447 10.1379 30.8451C10.8959 31.1063 11.7071 31.2748 12.4897 31.3595C12.617 31.3734 12.7436 31.3853 12.8692 31.3952C12.8694 31.3952 12.8697 31.3952 12.8699 31.3952C13.5155 31.4463 14.1334 31.4445 14.6808 31.4236C14.8636 31.4167 15.0384 31.4026 15.2061 31.3833C15.5485 31.3438 15.8615 31.2831 16.1564 31.2157C16.3923 31.1617 16.6168 31.1033 16.837 31.0459C17.5883 30.8298 18.2698 30.7332 19.8719 30.1078ZM0.381537 19.786C0.3669 20.1954 0.399754 20.528 0.438665 20.7724C0.418752 20.5627 0.40389 20.3532 0.39384 20.1436C0.388117 20.0243 0.384019 19.9051 0.381537 19.786ZM13.823 32.4861C13.7609 32.486 13.6983 32.4856 13.6354 32.4847C13.8074 32.5012 13.9796 32.5147 14.1517 32.525C14.3629 32.5376 14.5744 32.5456 14.7858 32.5488C14.4499 32.5375 14.1248 32.515 13.823 32.4861ZM20.1777 30.9107C19.2314 31.2915 18.5196 31.5877 17.8532 31.8247C17.6614 31.8921 17.4732 31.9533 17.2848 32.0067C17.2067 32.0288 17.1285 32.0513 17.0495 32.0738C17.5198 32.0155 17.949 31.937 18.2978 31.8607C19.3375 31.6277 19.9162 31.4321 20.4233 31.2584C20.4298 31.2561 20.4363 31.2538 20.4427 31.2515C20.5821 31.2021 20.7159 31.1522 20.8513 31.0984C20.9609 31.035 21.0739 30.9683 21.1876 30.9007C21.3469 30.8061 21.5174 30.702 21.6779 30.6009C21.8391 30.4995 22.0012 30.3944 22.1589 30.2894C22.3178 30.1836 22.4737 30.0767 22.6271 29.9682C22.7714 29.866 22.9137 29.7622 23.0493 29.6593C23.0571 29.6534 23.0648 29.6475 23.0726 29.6416C23.2157 29.5325 23.3526 29.4236 23.4751 29.3194C23.5996 29.2134 23.6996 29.121 23.7837 29.0339C23.8887 28.925 23.995 28.8126 24.0987 28.7006C24.2025 28.5885 24.3045 28.476 24.4046 28.363C24.4923 28.2641 24.578 28.1654 24.6627 28.0658C24.675 28.0513 24.6873 28.0368 24.6995 28.0223C24.7308 27.9853 24.7632 27.9465 24.7939 27.9096C24.808 27.8926 24.822 27.8755 24.836 27.8585C24.7743 27.9222 24.7112 27.986 24.6467 28.0497C24.4991 28.1956 24.3441 28.3415 24.1816 28.4862C23.8441 28.7866 23.4643 29.0853 23.0268 29.3863C22.3021 29.8825 21.4218 30.3934 20.2836 30.8672C20.2485 30.8818 20.2132 30.8962 20.1777 30.9107ZM27.2888 24.2128C27.2365 24.3278 27.1598 24.4965 27.0538 24.7107C27.0288 24.7613 27.0021 24.8146 26.9736 24.8702C26.9744 24.869 26.9751 24.8676 26.9759 24.8664C27.057 24.7341 27.1294 24.6104 27.2043 24.475C27.3376 24.2334 27.4586 23.9937 27.572 23.7473C27.574 23.7428 27.5761 23.7383 27.5781 23.7339C27.6895 23.4907 27.7918 23.244 27.8852 22.9935C27.9805 22.738 28.0665 22.478 28.1421 22.2175C28.2184 21.9544 28.2841 21.6922 28.34 21.4253C28.3578 21.3403 28.3745 21.2548 28.3902 21.1691C28.3439 21.3582 28.2938 21.5537 28.2358 21.7587C28.1895 21.9223 28.1381 22.0921 28.0793 22.2689C28.0568 22.3366 28.0281 22.418 27.9934 22.5124C27.8885 22.7972 27.7304 23.2015 27.5128 23.7068C27.4443 23.8657 27.3698 24.0345 27.2888 24.2128ZM28.5271 19.0069C28.5265 18.9441 28.5256 18.8817 28.5247 18.82C28.5237 18.749 28.5225 18.6788 28.521 18.6092L29.1152 19.2034C29.0081 19.2056 28.9025 19.2073 28.7982 19.2086C28.6751 19.2103 28.5535 19.2114 28.4337 19.2127C28.3831 19.2132 28.3326 19.2138 28.2826 19.2143C28.1987 19.2152 28.1155 19.2163 28.0329 19.2174C28.3958 19.2245 28.7535 19.2306 29.1152 19.2348L28.4897 18.6092C28.4872 18.8153 28.4805 19.0227 28.4696 19.2329C28.4693 19.2404 28.469 19.2478 28.4686 19.2553C28.4893 19.1709 28.5088 19.0881 28.5271 19.0069ZM13.6262 16.7039C13.6447 16.7064 13.6631 16.7089 13.6814 16.7115C13.8982 16.7421 14.106 16.7858 14.3679 16.8263C14.368 16.8263 14.3682 16.8263 14.3684 16.8263C14.4089 16.8326 14.4508 16.8387 14.4942 16.8446C14.8428 16.8893 15.3066 16.9338 15.9987 16.8454C16.2652 16.8102 16.5129 16.7737 16.7398 16.7386C17.1625 16.6733 17.5132 16.6132 17.7693 16.5785C17.8426 16.5682 17.9157 16.55 18.0904 16.4802C18.2048 16.434 18.3579 16.3676 18.5737 16.2599C18.6884 16.2025 18.8207 16.1331 18.9729 16.0465C19.1785 15.9296 19.4234 15.7704 19.677 15.5765C20.0456 15.2963 20.4293 14.9406 20.7581 14.5697C21.0967 14.1905 21.3773 13.7973 21.5761 13.4904C21.6462 13.3826 21.7139 13.2745 21.7796 13.1654L22.148 14.5321C21.7603 14.2998 21.3778 14.0629 20.9705 13.8106C20.4796 13.5064 19.9527 13.1798 19.337 12.8123C18.8647 12.5303 18.4394 12.1977 18.0111 11.8532C17.9566 11.8093 17.9019 11.7652 17.8471 11.721C17.4696 11.4162 17.0837 11.1045 16.6466 10.8018C15.8676 10.2621 15.1981 9.91471 14.4568 9.53007C14.1668 9.37964 13.8659 9.2235 13.543 9.0479C13.0325 8.7702 12.31 8.35126 11.585 7.92964C11.5233 7.89372 11.4614 7.85784 11.3997 7.82197C11.3994 7.82179 11.3991 7.82161 11.3988 7.82143C10.7352 7.4354 10.0839 7.05653 9.60075 6.78784C8.83299 6.36089 8.53145 6.22227 8.27991 6.10673C8.18536 6.0633 8.09779 6.02316 7.99523 5.9721C7.62586 5.78821 7.08923 5.47416 6.54525 5.15585C6.54317 5.15465 6.54109 5.15345 6.539 5.15225C6.44872 5.09943 6.41779 4.98391 6.46992 4.89429C6.52206 4.80466 6.63756 4.77479 6.72785 4.82762C7.01599 4.99623 7.29717 5.16074 7.55084 5.3047C7.60838 5.23503 7.71008 5.21574 7.79133 5.26328C7.99475 5.38229 8.65385 5.68406 9.68768 6.15234C9.62871 6.09968 9.58041 6.05366 9.53867 6.01232C9.48968 5.96379 9.45298 5.92519 9.42139 5.89203C9.35556 5.82293 9.31169 5.77708 9.22454 5.71181C9.01498 5.57404 8.67546 5.37514 8.31808 5.16601C8.22785 5.11318 8.19683 4.9978 8.24891 4.9082C8.30105 4.81861 8.41656 4.78876 8.50684 4.84154C8.50861 4.84256 8.51038 4.84358 8.51216 4.8446C8.86612 5.05172 9.2166 5.25689 9.43536 5.40109C9.49101 5.43777 9.5383 5.4705 9.57343 5.49573C9.60151 5.5159 9.63638 5.54141 9.65403 5.55858C9.65637 5.56086 9.66079 5.56529 9.66579 5.57105C9.66587 5.57117 9.66594 5.57128 9.66601 5.57139C9.66882 5.5746 9.68316 5.59092 9.69458 5.61508C9.69688 5.61996 9.70181 5.63072 9.70597 5.64593C9.70804 5.6481 9.71012 5.65029 9.7122 5.65247C9.74116 5.68282 9.77072 5.71377 9.80338 5.74612C9.9309 5.87243 10.1403 6.05963 10.6059 6.39814C11.0341 6.70948 11.7928 7.17516 12.7551 7.72928C12.6939 7.68514 12.6325 7.64112 12.571 7.59739C12.4162 7.48736 12.2598 7.37828 12.103 7.26984C12.0429 7.22831 11.9836 7.18738 11.9231 7.14586C11.8257 7.07897 11.728 7.01207 11.6301 6.94538C11.564 6.90031 11.4977 6.85524 11.4315 6.8102C11.4313 6.81011 11.4312 6.81002 11.431 6.80993C11.3391 6.7474 11.247 6.68469 11.1543 6.62134C11.1219 6.599 11.0899 6.57701 11.0581 6.55522C10.9314 6.46848 10.8069 6.3834 10.6682 6.27747C10.6518 6.26373 10.6344 6.24812 10.6216 6.23611C10.6079 6.22328 10.5947 6.21071 10.5825 6.19857C10.5717 6.18786 10.5615 6.17743 10.5516 6.16752C10.5503 6.1662 10.549 6.16488 10.5477 6.16355C10.5367 6.15247 10.5261 6.14199 10.5159 6.13196C10.5057 6.12196 10.4959 6.11232 10.486 6.10317C10.4859 6.10311 10.4858 6.10305 10.4857 6.10299C10.4754 6.09349 10.4675 6.0863 10.4563 6.07676C10.4422 6.06479 10.4299 6.05476 10.4147 6.0431C10.4 6.03181 10.3845 6.02035 10.3687 6.00904C10.3529 5.99774 10.3367 5.98647 10.3201 5.97518C10.3036 5.96389 10.2867 5.95252 10.2695 5.94121C10.2524 5.92991 10.235 5.91861 10.2175 5.90725C10.1999 5.89588 10.1822 5.8844 10.1644 5.87291C10.1233 5.84643 10.0932 5.80508 10.081 5.75734C10.0689 5.70961 10.0756 5.65959 10.0999 5.6178C10.1242 5.576 10.1644 5.54549 10.2118 5.53259C10.2592 5.51971 10.31 5.52562 10.3531 5.54843C10.3649 5.55465 10.3767 5.56085 10.3886 5.56714C10.3956 5.57087 10.4027 5.5747 10.4098 5.57847C10.4287 5.58859 10.448 5.59875 10.4672 5.6092C10.4864 5.61964 10.5057 5.63033 10.5251 5.64126C10.5446 5.65222 10.5643 5.66346 10.5841 5.67518C10.6038 5.68687 10.6238 5.69909 10.6439 5.71192C10.6635 5.7244 10.6856 5.73919 10.705 5.75298C10.7192 5.763 10.7364 5.77601 10.7506 5.78701C10.7654 5.7985 10.7798 5.8101 10.7936 5.82148C10.8074 5.83288 10.8206 5.84415 10.8333 5.85488C10.8346 5.85601 10.836 5.85714 10.8374 5.85828C10.8485 5.86776 10.8593 5.87694 10.8696 5.88548C10.8811 5.89503 10.892 5.90386 10.9026 5.91206C10.9142 5.92114 10.9214 5.92627 10.9304 5.93249C11.0518 6.0093 11.2062 6.09671 11.3534 6.1801C11.3719 6.19057 11.3903 6.20103 11.4085 6.21136C11.5052 6.26601 11.6019 6.32034 11.6985 6.37464C11.7687 6.4141 11.8391 6.45358 11.9094 6.49322C12.0129 6.55153 12.1166 6.61022 12.2201 6.66903C12.2844 6.70559 12.3474 6.74157 12.4114 6.77825C12.5785 6.87397 12.7458 6.97077 12.9124 7.06918C13.0787 7.16747 13.2453 7.26781 13.4106 7.3706C13.5752 7.47301 13.7448 7.58203 13.9058 7.69206C14.0241 7.77312 14.1413 7.86325 14.2486 7.94846C14.3063 7.99427 14.3626 8.03947 14.418 8.08416C14.4182 8.08433 14.4184 8.0845 14.4186 8.08467C14.4672 8.12389 14.5152 8.16264 14.563 8.20075C14.6656 8.28253 14.7672 8.36131 14.8702 8.43769C14.9731 8.51398 15.0768 8.58763 15.1827 8.6593C15.2879 8.73042 15.3962 8.80039 15.5046 8.86751C15.6136 8.93497 15.7218 8.99915 15.8364 9.06495C15.9872 9.1513 16.1385 9.23445 16.294 9.31936C16.4485 9.40355 16.6047 9.48755 16.7613 9.57174C16.8161 9.60116 16.8709 9.63076 16.9258 9.66025C16.926 9.66037 16.9263 9.66049 16.9265 9.66061C17.0281 9.71517 17.13 9.76985 17.2319 9.8247C17.3892 9.90939 17.5468 9.99453 17.7046 10.0808C17.8623 10.1671 18.0205 10.2546 18.1786 10.3442C18.3367 10.434 18.4982 10.5276 18.6577 10.6264C18.8001 10.7144 18.9428 10.8046 19.0822 10.8928C19.119 10.9161 19.1559 10.9394 19.1927 10.9627C19.3675 11.0732 19.5374 11.1788 19.7082 11.2786C19.8788 11.3783 20.0519 11.4735 20.2288 11.5658C20.4051 11.6578 20.5855 11.7476 20.7686 11.836C20.9526 11.9248 21.1353 12.0104 21.3224 12.0966C21.5082 12.182 21.6954 12.2668 21.8854 12.3517C21.9909 12.399 22.1024 12.4508 22.2072 12.5006C22.3131 12.5509 22.4177 12.6017 22.5208 12.6523C22.5627 12.6728 22.6042 12.6933 22.6455 12.7137C22.7058 12.7433 22.7655 12.7728 22.8244 12.8016C22.9093 12.843 22.9927 12.8832 23.0747 12.9215L23.833 13.4242L23.3902 14.092C23.383 14.1072 23.3758 14.1223 23.3686 14.1373C23.3193 14.2409 23.271 14.3416 23.2252 14.4397C23.1778 14.5414 23.1396 14.6261 23.095 14.729C22.9771 14.9734 22.8869 15.1156 22.7852 15.2717C22.765 15.3024 22.7444 15.3338 22.7227 15.3664C22.5971 15.5516 22.4622 15.7305 22.3214 15.901C22.1793 16.073 22.0317 16.2363 21.8753 16.3949C21.7204 16.552 21.5574 16.7035 21.389 16.8472C21.2414 16.9731 21.0894 17.0934 20.9329 17.208C20.9111 17.224 20.8893 17.2398 20.8673 17.2555C20.6878 17.3842 20.499 17.5075 20.3133 17.618C20.206 17.6819 20.09 17.7463 19.9809 17.8033C19.9022 17.8445 19.824 17.8837 19.7469 17.9211C19.7155 17.9364 19.6841 17.9514 19.653 17.9661C19.5457 18.017 19.4409 18.0647 19.3397 18.1106C19.2385 18.1564 19.1406 18.2005 19.0452 18.2443C18.9497 18.2882 18.8567 18.332 18.7639 18.3768C18.6678 18.4233 18.5882 18.4627 18.4866 18.5142C18.4205 18.5478 18.3553 18.5802 18.2899 18.6119C18.192 18.6593 18.0941 18.7052 17.9946 18.7501C17.8953 18.7949 17.7965 18.8381 17.6965 18.8803C17.6643 18.8939 17.6303 18.908 17.5979 18.9214C17.5167 18.955 17.4358 18.9875 17.3547 19.0194C17.3358 19.0268 17.3169 19.0342 17.298 19.0415C17.198 19.0804 17.0984 19.118 16.9986 19.1549C16.8983 19.1918 16.7992 19.2275 16.6975 19.2633C16.5247 19.3242 16.3547 19.3652 16.2049 19.3955C16.0532 19.4261 15.9102 19.4484 15.7707 19.4674C15.7446 19.4709 15.7184 19.4744 15.6922 19.4777C15.5795 19.4921 15.4684 19.5043 15.3587 19.5153C15.2236 19.5288 15.0906 19.5405 14.9569 19.5507C14.8244 19.5608 14.6902 19.5696 14.5578 19.5771C14.4242 19.5847 14.2961 19.5908 14.1576 19.5962C14.0207 19.6013 13.881 19.6075 13.7275 19.6107C13.5915 19.6135 13.449 19.6135 13.3045 19.6087C13.2874 19.6081 13.2704 19.6075 13.2533 19.6068C13.0914 19.6002 12.9271 19.5874 12.7646 19.5683C12.6018 19.5491 12.4391 19.5236 12.2798 19.4926C12.1196 19.4614 11.9615 19.4245 11.8056 19.3827C11.65 19.341 11.4908 19.2923 11.3434 19.2421C11.1047 19.1608 10.8704 19.0704 10.6395 18.9713C10.4099 18.8728 10.1834 18.7654 9.96178 18.6503C9.75792 18.5444 9.55754 18.4317 9.36148 18.3127C9.34473 18.3026 9.32802 18.2924 9.31134 18.2821C9.09928 18.1518 8.89206 18.014 8.69044 17.8694C8.64584 17.8374 8.60151 17.8051 8.55742 17.7724C8.40223 17.6574 8.2503 17.5383 8.10238 17.4158C8.10138 17.415 8.10038 17.4141 8.09938 17.4132C7.90901 17.2555 7.72762 17.0944 7.54971 16.9263C7.48438 16.8646 7.42235 16.8046 7.35987 16.7431C7.29732 16.6815 7.23654 16.6205 7.17576 16.5584C7.11489 16.4963 7.0549 16.434 6.99627 16.3722C6.93696 16.3098 6.87961 16.2486 6.82188 16.1866C6.76899 16.1298 6.71642 16.0733 6.6598 16.0109C6.65463 16.0052 6.64947 15.9995 6.64431 15.9938C6.58246 15.9254 6.51399 15.8459 6.45323 15.7696C6.39301 15.6939 6.33425 15.6182 6.27653 15.5421C6.18022 15.4151 6.08685 15.2872 5.99489 15.156C5.8478 14.9462 5.70734 14.7323 5.57313 14.512C5.52075 14.426 5.46916 14.3389 5.41892 14.251C5.34074 14.1143 5.26532 13.9752 5.19314 13.834C5.07436 13.6015 4.9648 13.3637 4.86559 13.1198C4.76676 12.8768 4.67841 12.6278 4.60228 12.3765C4.54789 12.1971 4.49917 12.0149 4.45674 11.8322C4.43977 11.7592 4.42381 11.6862 4.40887 11.6132C4.35063 11.3286 4.30573 11.0434 4.27301 10.7561C4.24038 10.4693 4.22028 10.1814 4.21245 9.89498C4.20455 9.60754 4.20893 9.32109 4.22534 9.03584C4.24176 8.75042 4.27023 8.46648 4.31053 8.18469C4.33189 8.03539 4.35661 7.88678 4.3846 7.73893C4.38822 7.71976 4.3919 7.70061 4.39564 7.68147C4.39899 7.59136 4.4032 7.50485 4.40833 7.42161C4.44934 6.80687 4.51521 6.35921 4.66879 5.78645C4.68222 5.73113 4.69084 5.68529 4.70181 5.62955C4.70391 5.61892 4.70624 5.60767 4.70857 5.59618C4.72336 5.52342 4.74186 5.44014 4.77733 5.32756C4.84807 5.10381 4.98654 4.76579 5.27148 4.39036C5.34358 4.29548 5.46665 4.27664 5.54499 4.3453C5.60004 4.39343 5.61936 4.47089 5.60245 4.54402C5.67357 4.42867 5.74719 4.31556 5.82267 4.20442C5.85281 4.16004 5.89773 4.12775 5.94743 4.11532C5.99715 4.10288 6.04737 4.11116 6.08769 4.13784C6.12804 4.16455 6.15546 4.2076 6.16503 4.25758C6.17456 4.30755 6.16547 4.36035 6.14 4.40526C6.07233 4.52441 6.00734 4.6446 5.94545 4.76644C5.8835 4.88837 5.82495 5.01135 5.76924 5.13604C5.71355 5.26069 5.66098 5.38668 5.61127 5.51425C5.56178 5.64132 5.5151 5.76978 5.47143 5.89949C5.42747 6.03002 5.38746 6.15912 5.3496 6.29108C5.32694 6.37015 5.30501 6.45045 5.28466 6.52957C5.27705 6.55905 5.26989 6.58789 5.26276 6.61675C5.25694 6.64034 5.25111 6.66405 5.24524 6.68848C5.18385 6.94566 5.13295 7.20776 5.09364 7.46905C5.07579 7.5875 5.06019 7.70619 5.04685 7.82509C5.03063 7.96967 5.01774 8.11451 5.00819 8.25951C4.99078 8.52389 4.98455 8.78858 4.98922 9.05296C4.99391 9.3172 5.00957 9.5809 5.03625 9.84375C5.06287 10.1056 5.10044 10.3672 5.14898 10.6259C5.18652 10.826 5.2304 11.023 5.28075 11.2184C5.30785 11.2937 5.33514 11.3679 5.36272 11.4407C5.37961 11.4854 5.39716 11.5297 5.4153 11.5738C5.48334 11.7393 5.5595 11.9009 5.63891 12.0576C5.5714 11.8786 5.51264 11.7155 5.45948 11.5619C5.40379 11.4008 5.35428 11.2501 5.30927 11.1019C5.29749 11.0631 5.28599 11.0244 5.27483 10.9858C5.1623 10.5914 5.07399 10.1998 5.04611 9.66532C5.0098 8.90759 5.06454 8.30827 5.1335 7.83637C5.20451 7.3612 5.29194 7.01319 5.36961 6.75027C5.52866 6.22699 5.64677 6.01877 5.78539 5.83929C5.98053 5.58425 6.26538 5.07778 6.40419 4.82211C6.45339 4.72811 6.56876 4.69349 6.65953 4.74348C6.75037 4.79355 6.78426 4.90586 6.73734 4.9955C6.59639 5.2546 6.30291 5.7807 6.07894 6.07415C5.97942 6.20438 5.88026 6.36225 5.72939 6.85741C5.65623 7.10511 5.57362 7.43385 5.50591 7.88482C5.43961 8.33667 5.38618 8.91319 5.4212 9.64608C5.44702 10.1412 5.52801 10.5036 5.63489 10.8787C5.6455 10.9155 5.65654 10.9525 5.66781 10.9897C5.66786 10.9899 5.66791 10.9901 5.66796 10.9904C5.71368 11.141 5.76477 11.2961 5.82306 11.4639C5.89758 11.6779 5.98341 11.9126 6.09015 12.1838C6.4263 13.0812 7.09801 14.1028 7.52836 14.5785C7.63573 14.7025 7.72334 14.7949 7.7783 14.8489C7.83134 14.9009 7.88403 14.9498 7.9401 15.0006C8.15833 15.1921 8.41155 15.434 9.02292 15.9138C9.15748 16.0176 9.31592 16.1378 9.49271 16.2634C9.78401 16.4118 10.0714 16.5388 10.3188 16.6487C10.3207 16.6496 10.3226 16.6504 10.3245 16.6512C10.5392 16.7468 10.7506 16.8068 10.9573 16.852C11.0168 16.865 11.077 16.877 11.137 16.8882C11.2818 16.9154 11.4264 16.9384 11.5646 16.9638C11.6747 16.9841 11.7913 16.9999 11.9142 17.0137C12.3635 17.0628 12.8879 17.0894 13.5475 17.181C13.5715 17.1843 13.5953 17.1875 13.6191 17.1906C14.2906 17.2773 14.8762 17.2925 15.3835 17.2694C14.9968 17.2779 14.6995 17.2497 14.4547 17.2174C14.4085 17.2113 14.3643 17.2049 14.3219 17.1985C14.0464 17.1561 13.8436 17.1134 13.633 17.0838C13.6144 17.0811 13.5959 17.0785 13.5772 17.0761C12.4742 16.911 12.0782 16.7624 11.5976 16.6805C11.4716 16.6556 11.3305 16.6302 11.1784 16.5977C10.9582 16.5509 10.7145 16.489 10.4643 16.3958C10.3693 16.3605 10.2734 16.3206 10.1778 16.2757C9.85457 16.1236 9.4916 15.9436 9.12004 15.7188C9.11991 15.7187 9.11978 15.7186 9.11965 15.7185C9.04706 15.6746 8.97413 15.629 8.90119 15.5817C8.45639 15.2941 8.01196 14.9394 7.63555 14.5354C7.62865 14.528 7.6215 14.5204 7.61413 14.5125C7.57841 14.4743 7.53721 14.4305 7.4916 14.3807C7.17645 14.0382 6.63017 13.3803 6.3059 12.4139C6.23511 12.2029 6.18115 11.9769 6.1322 11.7184C6.11733 11.6396 6.10308 11.5577 6.08906 11.4723C6.08492 11.4471 6.08081 11.4215 6.07671 11.3955C6.02165 11.0414 5.96565 10.6158 5.92698 10.0635C5.89267 9.57462 5.88138 8.9772 5.94349 8.36281C5.9572 8.22507 5.97432 8.08657 5.99494 7.94844C6.01959 7.78323 6.04924 7.61857 6.08368 7.45637C6.27604 6.55657 6.59866 5.76939 7.01434 5.04786C7.01442 5.04771 7.01449 5.04756 7.01457 5.04741C7.06398 4.96187 7.17785 4.93687 7.26674 4.99015C7.35562 5.04347 7.38818 5.15145 7.34126 5.23269C6.94309 5.92324 6.63506 6.67418 6.45133 7.53244C6.41891 7.68496 6.3908 7.84043 6.36733 7.99689C6.3476 8.12835 6.33113 8.26049 6.3179 8.39215C6.25749 8.98301 6.26826 9.56283 6.30138 10.0353C6.33752 10.5548 6.38975 10.9599 6.44115 11.2973C6.44693 11.3348 6.45276 11.3714 6.45862 11.4073C6.47276 11.4937 6.48702 11.5748 6.5016 11.6519C6.54821 11.897 6.59669 12.1004 6.66094 12.2922C6.96192 13.1889 7.46488 13.7965 7.76799 14.1266C7.82216 14.1858 7.87046 14.237 7.91129 14.2807C7.91184 14.2813 7.91239 14.2819 7.91294 14.2825C8.26638 14.6612 8.68511 14.9957 9.11044 15.2704C9.17955 15.3152 9.24885 15.3585 9.31813 15.4004C9.31829 15.4004 9.31845 15.4005 9.31862 15.4006C9.6746 15.6158 10.0285 15.7913 10.3436 15.9391C10.4489 15.9885 10.5524 16.0304 10.6538 16.0665C10.8608 16.14 11.0587 16.1896 11.2475 16.23C11.3985 16.2623 11.5437 16.2889 11.6848 16.3165C12.1724 16.3996 12.571 16.5463 13.6262 16.7039ZM5.49472 4.72385C5.33307 4.95498 5.23602 5.16259 5.17662 5.32118C5.23951 5.19124 5.30542 5.06335 5.37428 4.9372C5.41348 4.86539 5.45362 4.79429 5.49472 4.72385ZM9.29841 16.5857C9.26157 16.5669 9.22456 16.5476 9.1875 16.5281C9.28138 16.5935 9.37636 16.6575 9.47228 16.7194C9.59006 16.7955 9.70939 16.8691 9.8302 16.9398C9.64136 16.822 9.46236 16.7017 9.29841 16.5857ZM13.4975 17.5532C12.8465 17.4624 12.3444 17.4372 11.8804 17.3872C11.7472 17.3724 11.6177 17.3549 11.4908 17.3315C11.4382 17.3218 11.3853 17.3126 11.3316 17.3033C11.6162 17.4255 11.8843 17.5229 12.1062 17.5951C12.7698 17.8071 13.1599 17.896 13.5037 17.9726C13.5081 17.9735 13.5126 17.9745 13.517 17.9754C13.612 17.9956 13.7041 18.0135 13.7985 18.0295C13.882 18.025 13.9684 18.0197 14.0554 18.0147C14.1771 18.0077 14.3081 17.9991 14.4323 17.9898C14.5569 17.9805 14.683 17.9699 14.8065 17.9585C14.9309 17.9469 15.0539 17.9344 15.1759 17.9205C15.2906 17.9074 15.4047 17.8931 15.5147 17.8771C15.521 17.8762 15.5273 17.8753 15.5336 17.8744C15.6498 17.8573 15.7624 17.8383 15.8651 17.8166C15.9696 17.7945 16.0556 17.7717 16.1305 17.745C16.2241 17.7117 16.3194 17.6771 16.413 17.6423C16.5067 17.6075 16.5994 17.5723 16.6912 17.5365C16.7715 17.5052 16.8506 17.4737 16.9293 17.4415C16.9408 17.4368 16.9522 17.4321 16.9636 17.4274C16.9927 17.4154 17.0231 17.4028 17.0519 17.3907C17.0651 17.3852 17.0783 17.3795 17.0915 17.3739C17.0363 17.3896 16.9803 17.4049 16.9234 17.4196C16.7934 17.4534 16.6593 17.4846 16.5213 17.5126C16.2348 17.5707 15.9247 17.6113 15.5822 17.6342C15.0154 17.6708 14.3591 17.6641 13.5706 17.563C13.5464 17.5598 13.522 17.5566 13.4975 17.5532ZM19.6371 16.1108C19.5709 16.1586 19.4742 16.2293 19.3465 16.3162C19.3163 16.3368 19.2844 16.3584 19.2507 16.3807C19.2515 16.3802 19.2524 16.3797 19.2532 16.3793C19.3431 16.3342 19.4252 16.2907 19.5125 16.2411C19.668 16.1526 19.8158 16.0605 19.9613 15.9614C19.9639 15.9596 19.9666 15.9578 19.9692 15.956C20.1125 15.8582 20.2516 15.7548 20.3867 15.6458C20.5244 15.5347 20.6581 15.4175 20.7857 15.296C20.9145 15.1734 21.0367 15.0473 21.1542 14.9149C21.1916 14.8727 21.2286 14.8299 21.2649 14.7866C21.1751 14.8758 21.0816 14.9677 20.9806 15.0622C20.9 15.1376 20.8145 15.2147 20.7224 15.293C20.6871 15.3229 20.6435 15.3581 20.5921 15.3985C20.4372 15.5202 20.2125 15.6893 19.9261 15.9C19.836 15.9663 19.7397 16.0366 19.6371 16.1108ZM22.011 13.5951C22.0302 13.5593 22.0491 13.5236 22.0679 13.4884C22.0896 13.4479 22.111 13.4079 22.1321 13.3682L22.3509 14.1796C22.2884 14.1462 22.227 14.1127 22.1665 14.0795C22.0952 14.0404 22.0249 14.0013 21.9556 13.9628C21.9264 13.9466 21.8971 13.9304 21.8682 13.9144C21.8197 13.8876 21.7714 13.8611 21.7235 13.8348C21.928 13.9606 22.13 14.0838 22.3352 14.2067L22.105 13.3526C22.0365 13.4666 21.9655 13.5801 21.8914 13.694C21.8888 13.698 21.8863 13.7021 21.8836 13.7061C21.9273 13.6688 21.9698 13.6318 22.011 13.5951ZM13.871 9.79986C13.706 9.62399 13.5785 9.43408 13.4366 9.18709C13.4365 9.18697 13.4364 9.18684 13.4363 9.18672C13.4161 9.1514 13.3957 9.11478 13.3749 9.07685C13.2101 8.77052 13.0026 8.36998 12.7775 7.74108C12.5311 7.04099 12.5464 6.4384 12.6105 6.08992C12.6228 6.02418 12.6255 5.95836 12.6252 5.79153C12.6254 5.70828 12.6254 5.60366 12.6307 5.46365C12.6324 5.42037 12.6346 5.37393 12.6377 5.32404C12.6446 5.21208 12.6556 5.08112 12.6755 4.92954C12.7347 4.42735 12.8984 3.64221 13.2118 2.97801C13.3965 2.57389 13.6224 2.21526 13.8165 1.96132C14.1002 1.58942 14.4255 1.27154 14.8133 0.976876C15.1692 0.708234 15.5789 0.457492 16.0817 0.234921C16.4685 0.0644833 16.8861 0.00468993 17.2984 0.000321984C17.351 -0.000271559 17.4039 -5.73993e-05 17.4562 0.00105447C17.8062 0.00831127 18.1542 0.0484526 18.516 0.093393C18.5293 0.0950435 18.5426 0.0967029 18.556 0.09837C19.2246 0.186836 19.7476 0.25829 20.3219 0.420777C20.5456 0.485917 20.7745 0.567817 21.0122 0.682115C21.3885 0.860039 21.8935 1.19821 22.3161 1.62709C22.3523 1.66337 22.3881 1.70015 22.4231 1.7374C22.4233 1.73759 22.4235 1.73777 22.4237 1.73796C22.803 2.13796 23.1005 2.59331 23.2912 2.94053C23.5904 3.49574 23.6727 3.72355 23.759 3.90616C23.7894 3.97555 23.8167 4.04098 23.8438 4.12021C23.9429 4.40571 24.018 4.85972 24.0231 5.3203C24.0232 5.32206 24.0232 5.32381 24.0233 5.32557C24.0244 5.40239 23.9395 5.4644 23.8358 5.46365C23.7321 5.4629 23.6488 5.40449 23.6478 5.3336C23.6448 5.10669 23.6259 4.88363 23.5943 4.68771C23.5046 4.69065 23.4302 4.64939 23.42 4.5882C23.3919 4.43842 23.2503 3.96016 22.836 3.35601C22.8432 3.40761 22.8462 3.45145 22.8475 3.49036C22.8489 3.53602 22.8479 3.57152 22.8469 3.60194C22.8446 3.66537 22.8424 3.70678 22.8546 3.77386C22.8974 3.92338 22.9731 4.15364 23.0278 4.4028C23.0418 4.466 22.9694 4.53429 22.8678 4.55469C22.7661 4.57508 22.6748 4.54468 22.662 4.4874C22.6618 4.48627 22.6615 4.48515 22.6612 4.48402C22.6117 4.25731 22.5402 4.03914 22.5 3.89515C22.4899 3.85849 22.4819 3.82656 22.4764 3.8023C22.472 3.78291 22.4667 3.75845 22.4668 3.74351C22.4668 3.74152 22.4669 3.7377 22.4675 3.73291C22.4676 3.73282 22.4676 3.73273 22.4676 3.73265C22.468 3.72997 22.4696 3.71638 22.4784 3.69863C22.4802 3.69504 22.4842 3.68717 22.4917 3.67671C22.4917 3.67484 22.4918 3.67296 22.4919 3.67109C22.4931 3.64497 22.4941 3.61824 22.4937 3.58979C22.4904 3.47921 22.4776 3.30494 22.3417 2.97967C22.2163 2.68357 21.9027 2.21493 21.3595 1.79312C21.3913 1.82763 21.4228 1.86242 21.4537 1.89733C21.5318 1.98524 21.6074 2.07472 21.6797 2.16605C21.7074 2.20102 21.7342 2.23581 21.7611 2.27144C21.8044 2.32884 21.8465 2.38713 21.8871 2.44602C21.9146 2.48583 21.9415 2.52601 21.9677 2.56651C21.9677 2.5666 21.9678 2.56668 21.9679 2.56676C22.0042 2.623 22.0392 2.67998 22.0729 2.73819C22.0846 2.75867 22.096 2.77894 22.1072 2.79907C22.1517 2.87915 22.1935 2.95909 22.23 3.05669C22.2336 3.06911 22.2368 3.08303 22.2387 3.09364C22.2409 3.10499 22.2428 3.11605 22.2442 3.12666C22.2455 3.13602 22.2465 3.14507 22.2475 3.15368C22.2477 3.15484 22.2478 3.15599 22.2479 3.15714C22.2491 3.16678 22.2502 3.17592 22.2513 3.18467C22.2525 3.1934 22.2535 3.20181 22.2549 3.20986C22.2549 3.20992 22.2549 3.20998 22.255 3.21004C22.2564 3.21842 22.2575 3.22478 22.2596 3.23335C22.2621 3.2441 22.2645 3.25319 22.2679 3.26392C22.2711 3.27431 22.2748 3.28496 22.2787 3.29558C22.2826 3.30619 22.2868 3.31687 22.2912 3.32764C22.2955 3.33842 22.3 3.34932 22.3046 3.36024C22.3093 3.37116 22.3141 3.38215 22.3188 3.39322C22.3236 3.40431 22.3284 3.41547 22.3332 3.4267C22.3442 3.45257 22.3382 3.4861 22.3157 3.51951C22.2931 3.55296 22.2561 3.58344 22.2129 3.60507C22.1697 3.6267 22.1234 3.63806 22.084 3.63757C22.0446 3.63702 22.0154 3.62461 22.0017 3.60291C21.998 3.597 21.9943 3.59109 21.9905 3.58514C21.9883 3.58161 21.9861 3.57799 21.9838 3.57443C21.9778 3.56485 21.9716 3.55524 21.9656 3.54548C21.9595 3.53573 21.9535 3.52582 21.9476 3.51577C21.9416 3.5057 21.9356 3.49544 21.9298 3.48488C21.924 3.47434 21.9183 3.46344 21.9129 3.45215C21.9076 3.44115 21.902 3.42831 21.8975 3.41651C21.8941 3.40791 21.8906 3.3969 21.8878 3.38764C21.8848 3.37797 21.8822 3.36828 21.8798 3.35881C21.8773 3.34933 21.8752 3.34001 21.8731 3.33114C21.8728 3.33019 21.8726 3.32925 21.8724 3.32831C21.8705 3.32046 21.8687 3.31287 21.8668 3.30578C21.8648 3.29785 21.8626 3.29048 21.8603 3.28359C21.8578 3.27598 21.8559 3.2716 21.8535 3.26628C21.8166 3.19931 21.7613 3.12251 21.7061 3.05158C21.6991 3.04265 21.6922 3.03377 21.6853 3.02503C21.6485 2.97875 21.6107 2.93359 21.5718 2.88926C21.5436 2.85705 21.5148 2.8253 21.4856 2.7939C21.4426 2.7477 21.3985 2.70223 21.3536 2.65774C21.3257 2.63008 21.2981 2.60326 21.2697 2.57632C21.1954 2.50599 21.1189 2.4377 21.0408 2.37093C20.9628 2.30427 20.8827 2.23885 20.8015 2.17419C20.7207 2.10973 20.6356 2.04345 20.5533 1.97778C20.4929 1.9293 20.4331 1.87417 20.3769 1.82257C20.3467 1.79481 20.3167 1.76759 20.2868 1.74103C20.2867 1.74092 20.2866 1.74081 20.2865 1.7407C20.2603 1.7174 20.2339 1.69462 20.2072 1.67265C20.15 1.62543 20.0916 1.58206 20.0306 1.54258C19.9696 1.50309 19.907 1.46784 19.8417 1.43655C19.7767 1.40546 19.7093 1.37823 19.6408 1.35527C19.5717 1.33215 19.5034 1.31361 19.43 1.29771C19.3336 1.27705 19.2371 1.26285 19.1373 1.25226C19.0386 1.24195 18.9379 1.23593 18.8378 1.23361C18.8028 1.23279 18.7675 1.23226 18.7321 1.23232C18.732 1.23232 18.7319 1.23231 18.7317 1.2323C18.667 1.23246 18.6018 1.23407 18.5363 1.23704C18.5295 1.23734 18.5228 1.23766 18.516 1.238C18.4213 1.24269 18.3288 1.25013 18.2346 1.25995C18.1343 1.27043 18.034 1.28367 17.9336 1.29871C17.8334 1.31361 17.7304 1.33098 17.6268 1.34704C17.534 1.36157 17.441 1.37765 17.35 1.39647C17.326 1.40143 17.302 1.4066 17.2781 1.41198C17.1644 1.43773 17.0558 1.46869 16.9514 1.50867C16.8473 1.54835 16.7464 1.59723 16.6493 1.65399C16.5524 1.71065 16.4586 1.77523 16.3687 1.84579C16.2784 1.9167 16.1939 1.99202 16.1122 2.07287C16.0313 2.1531 15.9545 2.23766 15.8817 2.32635C15.8412 2.37563 15.7985 2.42757 15.7587 2.47674C15.7186 2.52636 15.6793 2.57572 15.6414 2.62485C15.626 2.64479 15.6108 2.66466 15.596 2.68456C15.5743 2.71358 15.5533 2.74255 15.5331 2.77145C15.4992 2.82023 15.4677 2.86893 15.4395 2.91772C15.4113 2.96646 15.3865 3.01535 15.3658 3.0645C15.3444 3.11543 15.3299 3.1591 15.3164 3.21324C15.2756 3.33921 15.2451 3.41069 15.2122 3.49118C15.2058 3.507 15.1995 3.52327 15.193 3.54026C15.1546 3.63657 15.1171 3.73166 15.0816 3.82573C15.0458 3.92044 15.0119 4.01383 14.9791 4.10855C14.9467 4.20246 14.9154 4.29726 14.886 4.39214C14.8567 4.48707 14.829 4.58213 14.8027 4.67877C14.7765 4.7748 14.7514 4.87456 14.7289 4.97055C14.7159 5.02623 14.7018 5.08595 14.6893 5.14141C14.6803 5.18153 14.6716 5.22145 14.6637 5.26094C14.6605 5.27697 14.6573 5.29283 14.6544 5.30867C14.6445 5.36123 14.6363 5.41304 14.6307 5.46365C14.6305 5.46557 14.6303 5.46749 14.6301 5.46941C14.6245 5.52181 14.6216 5.57245 14.6221 5.62171C14.6225 5.67078 14.6265 5.71966 14.6339 5.76745C14.6417 5.81711 14.6508 5.85755 14.6663 5.90931C14.6766 5.94287 14.6872 5.9754 14.6982 6.00753C14.7147 6.05542 14.7324 6.10318 14.7512 6.15011C14.7701 6.19704 14.7898 6.24258 14.811 6.288C14.8178 6.30257 14.8251 6.31787 14.8322 6.33229C14.8541 6.37684 14.877 6.42008 14.9013 6.46264C14.9256 6.50508 14.951 6.54597 14.9778 6.58597C15.0047 6.62617 15.0325 6.66463 15.0624 6.70265C15.1132 6.76736 15.1518 6.83142 15.1847 6.88765C15.2178 6.94476 15.2474 6.99806 15.2773 7.04947C15.2829 7.0591 15.2886 7.0687 15.2943 7.07826C15.3187 7.11952 15.3434 7.15945 15.3691 7.19811C15.4007 7.24575 15.4337 7.29108 15.4686 7.33519C15.5033 7.37896 15.5401 7.42157 15.5784 7.46172C15.6171 7.50225 15.6558 7.53936 15.6994 7.57722C15.7425 7.61474 15.7897 7.64955 15.842 7.68597C15.8938 7.72207 15.9486 7.75839 16.0031 7.79491C16.0575 7.83136 16.1119 7.8681 16.1648 7.90482C16.2179 7.9416 16.2702 7.97863 16.3212 8.01533C16.3725 8.05222 16.4228 8.08904 16.4729 8.12567C16.5229 8.16225 16.5743 8.19985 16.6227 8.23513C16.7009 8.29219 16.7806 8.34673 16.8625 8.39824C16.944 8.44954 17.0279 8.49802 17.1133 8.54294C17.1988 8.58789 17.2862 8.62939 17.3754 8.66736C17.4645 8.70531 17.5554 8.73961 17.648 8.77011C17.6685 8.77686 17.6888 8.78336 17.7094 8.78971C17.7819 8.81207 17.8554 8.83205 17.9293 8.84942C17.9298 8.84957 17.9303 8.84972 17.9308 8.84987C18.0262 8.87214 18.121 8.88999 18.2177 8.90312C18.2532 8.9079 18.2875 8.91193 18.3226 8.91524C18.3578 8.91852 18.3919 8.92099 18.4268 8.92269C18.4566 8.92414 18.4864 8.92494 18.516 8.92506C18.5211 8.92508 18.5262 8.92508 18.5312 8.92506C18.5661 8.92489 18.5999 8.92383 18.6338 8.92149C18.6649 8.91939 18.6953 8.9161 18.7291 8.91208C18.7322 8.91171 18.7352 8.91134 18.7383 8.91096C18.7751 8.90647 18.8166 8.90179 18.8552 8.89903C18.9583 8.89197 19.0575 8.87927 19.1578 8.86037C19.2579 8.84148 19.3565 8.8168 19.4546 8.7868C19.4929 8.77511 19.5307 8.7626 19.5688 8.7494C19.628 8.72887 19.6862 8.70686 19.7446 8.68328C19.8404 8.6446 19.935 8.6025 20.0291 8.55772C20.1229 8.51305 20.2163 8.46571 20.3086 8.41637C20.4009 8.36698 20.4932 8.31482 20.5837 8.26078C20.6846 8.20059 20.7832 8.13637 20.8796 8.06695C20.976 7.99764 21.0698 7.92349 21.1601 7.84491C21.2507 7.76605 21.338 7.68264 21.4216 7.59468C21.5052 7.50669 21.5852 7.41422 21.6609 7.31746C21.7062 7.25959 21.7501 7.20012 21.7924 7.1393C21.8022 7.10072 21.811 7.06347 21.8188 7.02789C21.8751 6.76421 21.895 6.57537 21.9269 6.33438C21.9281 6.31094 21.9263 6.29119 21.9239 6.26726C21.9234 6.2627 21.923 6.25788 21.9225 6.25295C21.9193 6.2218 21.9165 6.1861 21.919 6.13879C21.924 6.04347 21.9511 5.90666 22.0524 5.72346C22.0779 5.67723 22.1791 5.65039 22.2797 5.66653C22.3502 5.67797 22.4014 5.70911 22.4165 5.74489C22.433 5.6819 22.4486 5.61897 22.4626 5.55514C22.4682 5.52968 22.4917 5.50591 22.5289 5.48867C22.5661 5.47149 22.6136 5.46227 22.6619 5.46382C22.7102 5.46536 22.7555 5.47778 22.7883 5.49891C22.8211 5.52 22.8385 5.54801 22.837 5.57608C22.8329 5.6504 22.827 5.72438 22.8198 5.79828C22.8126 5.87197 22.8042 5.94529 22.7943 6.01865C22.7845 6.09175 22.7732 6.16484 22.7604 6.23785C22.7478 6.31036 22.7334 6.38305 22.7175 6.45541C22.7015 6.52803 22.6842 6.5994 22.665 6.67122C22.6534 6.71426 22.6411 6.75752 22.6284 6.80013C22.6236 6.81598 22.619 6.83145 22.6143 6.84686C22.6104 6.85946 22.6063 6.87208 22.6021 6.88506C22.5585 7.02174 22.5078 7.15796 22.451 7.29048C22.3941 7.42356 22.3305 7.55404 22.2607 7.68135C22.1908 7.80875 22.1147 7.93296 22.0325 8.05338C21.9503 8.1738 21.8622 8.29036 21.7683 8.40285C21.6747 8.51497 21.5751 8.62313 21.4706 8.72643C21.3898 8.8063 21.3068 8.88287 21.2209 8.95667C21.1916 8.99162 21.1617 9.02553 21.1316 9.05841C21.0438 9.15417 20.9554 9.25345 20.8628 9.34848C21.0495 9.21564 21.1823 9.08714 21.3015 8.96078C21.3175 8.94381 21.3332 8.92682 21.3487 8.90983C21.5069 8.73553 21.6497 8.56466 21.8504 8.34374C22.4143 7.70385 22.5939 7.22385 22.7248 6.94535C22.8486 6.65958 22.9089 6.53615 23.0066 6.4262C23.1457 6.27206 23.2506 5.91809 23.2596 5.73579C23.2641 5.67012 23.3503 5.61993 23.4539 5.62304C23.5575 5.62636 23.6394 5.68652 23.6345 5.75819C23.6247 5.96536 23.5096 6.38067 23.3369 6.57834C23.2602 6.66632 23.2057 6.77429 23.075 7.07992C22.9361 7.37762 22.7447 7.89485 22.1329 8.59111C21.9234 8.82237 21.7733 8.99966 21.6029 9.18509C21.5861 9.20319 21.5692 9.2214 21.5519 9.23958C21.5517 9.23968 21.5516 9.23978 21.5515 9.23988C21.3915 9.40677 21.2053 9.58367 20.9136 9.7646C20.2517 10.2085 19.1845 10.4695 18.927 10.507C18.8769 10.5183 18.8282 10.5297 18.7764 10.5409C18.7015 10.5571 18.6197 10.5734 18.516 10.5868C18.3473 10.6076 18.123 10.6254 17.7799 10.5942C17.6589 10.5828 17.5183 10.5618 17.366 10.5289C17.1278 10.5271 16.8924 10.5045 16.6937 10.4615C16.5218 10.4243 16.3562 10.4021 16.1918 10.3779C16.1446 10.371 16.0965 10.3637 16.0486 10.3557C15.9331 10.3366 15.8171 10.3132 15.7077 10.2807C15.6206 10.2548 15.5276 10.2281 15.4297 10.1969C15.0759 10.0838 14.6367 9.90527 14.2321 9.47825C13.8064 9.02578 13.5316 8.56228 13.3404 8.14954C13.4736 8.45744 13.5917 8.69116 13.6963 8.88406C13.7161 8.9204 13.7354 8.95508 13.7544 8.98832C13.8886 9.2229 13.9999 9.38838 14.1441 9.5423C14.8501 10.2628 15.2242 10.4132 15.6241 10.5504C15.7318 10.5839 15.8532 10.6123 15.9843 10.6379C16.246 10.689 16.543 10.7263 16.8479 10.7743C17.1321 10.8194 17.4547 10.8312 17.7872 10.8093C17.7873 10.8093 17.7875 10.8094 17.7876 10.8094C17.8524 10.8051 17.9182 10.7997 17.9839 10.793C18.1608 10.7751 18.339 10.7485 18.516 10.7157C18.7385 10.6744 18.9557 10.6232 19.167 10.5682C19.2075 10.5576 19.2554 10.5435 19.3103 10.5263C19.6295 10.4263 20.1582 10.2256 20.7972 9.96256C20.938 9.9046 21.089 9.84996 21.2592 9.77691C21.311 9.75463 21.3645 9.73075 21.4199 9.7042C21.6579 9.58935 21.9433 9.42746 22.2657 9.13721C22.5314 8.89798 22.8179 8.56277 23.0605 8.17677C23.1803 7.98698 23.2902 7.78559 23.3866 7.58112C23.6773 6.96298 23.8443 6.34433 23.9071 5.71254C23.9071 5.71242 23.9071 5.71229 23.9071 5.71216C23.9144 5.63828 24.0027 5.58123 24.1063 5.5858C24.2097 5.59037 24.2893 5.65949 24.2816 5.73921C24.2156 6.41494 24.0382 7.07581 23.7286 7.73595C23.6271 7.9517 23.5108 8.16596 23.3833 8.36863C23.1231 8.78457 22.8124 9.14882 22.5258 9.40787C22.1753 9.72466 21.865 9.90235 21.6072 10.0284C21.5449 10.0586 21.4858 10.0855 21.4293 10.11C21.2494 10.1881 21.0977 10.2436 20.9543 10.3031C20.29 10.5786 19.7422 10.784 19.399 10.8901C19.3381 10.9088 19.2852 10.9241 19.2392 10.9359C19.005 10.9958 18.7639 11.051 18.516 11.0945C18.3412 11.1251 18.1654 11.1498 17.9891 11.1668C17.9205 11.1734 17.8505 11.1788 17.7816 11.1829C17.7814 11.183 17.7813 11.183 17.7811 11.1831C17.4266 11.2047 17.077 11.1906 16.7684 11.1404C16.4553 11.0896 16.1714 11.0527 15.9035 11.0008C15.76 10.9728 15.6216 10.9404 15.4882 10.8984C15.0382 10.7429 14.6231 10.568 13.871 9.79986ZM22.3903 5.84115C22.3309 5.96642 22.3051 6.0663 22.2945 6.14387C22.3167 6.08061 22.3377 6.0169 22.3575 5.95232C22.3688 5.91559 22.3798 5.87818 22.3903 5.84115ZM17.4295 10.1586C17.4563 10.1585 17.4833 10.1581 17.5103 10.1576C17.4385 10.1453 17.3675 10.1312 17.2966 10.1155C17.2092 10.0962 17.1231 10.0744 17.037 10.05C17.1716 10.0946 17.3048 10.1311 17.4295 10.1586ZM14.5052 9.22043C14.8625 9.597 15.2425 9.75035 15.5733 9.85492C15.6692 9.885 15.7625 9.91135 15.8529 9.93754C15.8904 9.94841 15.9285 9.95791 15.9672 9.9665C15.7783 9.85277 15.6132 9.7351 15.4827 9.63358C15.0948 9.32762 14.9232 9.10006 14.7778 8.90447C14.7361 8.84722 14.6973 8.79156 14.6582 8.73469C14.6118 8.69952 14.5646 8.6617 14.5187 8.62142C14.4544 8.56515 14.3876 8.50106 14.3268 8.43731C14.2657 8.37333 14.2064 8.30559 14.1511 8.23655C14.0953 8.16687 14.043 8.09554 13.9936 8.0225C13.947 7.95372 13.9032 7.88365 13.8622 7.81466C13.8598 7.8107 13.8575 7.80675 13.8552 7.80279C13.8119 7.72964 13.7719 7.65761 13.7341 7.59132C13.6955 7.52381 13.6623 7.468 13.6281 7.42001C13.5854 7.36007 13.5436 7.29641 13.5047 7.23266C13.4657 7.1687 13.4289 7.10321 13.3944 7.03691C13.36 6.97062 13.3278 6.90364 13.2975 6.83524C13.2877 6.81306 13.2777 6.79003 13.2684 6.76798C13.2642 6.75783 13.2599 6.74767 13.2557 6.7375C13.2883 6.87812 13.3272 7.02311 13.3733 7.17171C13.4397 7.38555 13.5168 7.61387 13.6214 7.85813C13.8004 8.2734 14.0595 8.74548 14.5052 9.22043ZM13.1461 4.55961C13.1366 4.62251 13.1252 4.71372 13.1152 4.83276C13.1129 4.86085 13.1107 4.89078 13.1086 4.92172C13.1088 4.921 13.1089 4.92026 13.109 4.91954C13.1262 4.84362 13.143 4.77389 13.1614 4.69943C13.1941 4.56639 13.2291 4.43864 13.2674 4.31065C13.3058 4.18231 13.347 4.05577 13.3913 3.93057C13.4356 3.80515 13.4829 3.68078 13.5327 3.55859C13.5828 3.43533 13.6353 3.31515 13.6904 3.19496C13.7079 3.15674 13.7258 3.11831 13.7439 3.08007C13.6931 3.16048 13.6445 3.24581 13.5955 3.33822C13.5565 3.41202 13.5176 3.48956 13.4776 3.57254C13.4623 3.60435 13.4433 3.64239 13.4217 3.68732C13.3366 3.86511 13.208 4.15386 13.1461 4.55961ZM14.2246 2.12543C14.2419 2.09921 14.2595 2.07343 14.2773 2.04831C14.3282 1.97683 14.3813 1.90955 14.4352 1.84527C14.4731 1.80014 14.5116 1.75639 14.5502 1.71381C14.5665 1.69584 14.5828 1.67796 14.5991 1.66037C14.6265 1.63091 14.6538 1.60183 14.6812 1.57323C14.4755 1.76034 14.2889 1.96061 14.1165 2.18688C14.1143 2.18986 14.1121 2.19293 14.1098 2.19594C14.1487 2.17129 14.1871 2.1478 14.2246 2.12543Z" fill="#1A2C2C"/>
</svg>
